<svg xmlns="http://www.w3.org/2000/svg" xmlns:xlink="http://www.w3.org/1999/xlink" width="553.101" height="389.973" viewBox="0 0 553.101 389.973">
  <defs>
    <linearGradient id="linear-gradient" x1="0.5" y1="1" x2="0.5" gradientUnits="objectBoundingBox">
      <stop offset="0" stop-color="gray" stop-opacity="0.251"/>
      <stop offset="0.54" stop-color="gray" stop-opacity="0.122"/>
      <stop offset="1" stop-color="gray" stop-opacity="0.102"/>
    </linearGradient>
  </defs>
  <g id="Grupo_5" data-name="Grupo 5" transform="translate(-213 -306.138)">
    <path id="Caminho_8" data-name="Caminho 8" d="M749.058,265.787l-45.17,2.084,44.384-9.064a56.339,56.339,0,0,0-3.343-11.666,56.456,56.456,0,1,0-72.351-86.35l31.5,40.668L667.2,166.751a56.573,56.573,0,0,0-11.226,43.314l32.278,8.914-31.2-3.6a57.207,57.207,0,0,0,2.451,7.415,56.462,56.462,0,0,0-19.086,67.153,56.456,56.456,0,0,0,7.415,96.022,19.464,19.464,0,0,0-2.93,6.083,18.552,18.552,0,0,0-.217,9.738,19.293,19.293,0,0,0-5.17,18.134,19.292,19.292,0,0,0-5.17,18.134,19.282,19.282,0,0,0-5.17,18.134,18.6,18.6,0,0,0-4.953,8.4c-2.334,8.189.847,16.284,7.109,18.067s13.226-3.415,15.56-11.61a18.613,18.613,0,0,0,.223-9.738,19.326,19.326,0,0,0,5.17-18.134,19.331,19.331,0,0,0,5.17-18.139,19.315,19.315,0,0,0,5.17-18.134,18.54,18.54,0,0,0,4.947-8.4,19.3,19.3,0,0,0,.724-6.618,56.456,56.456,0,0,0,57.437-77.615A56.485,56.485,0,0,0,749.031,265.8Z" transform="translate(-115.193 161.083)" fill="#f2f2f2"/>
    <g id="Grupo_4" data-name="Grupo 4" transform="translate(213 668.726)">
      <path id="Caminho_4" data-name="Caminho 4" d="M274.177,769.779c0,3.053-9.065,5.844-24.055,7.989-2.725.384-5.647.752-8.744,1.114q-4.016.451-8.417.841-4.266.373-8.856.7c-9.667.68-20.351,1.17-31.7,1.415q-4.132.095-8.375.139-4.419.05-8.939.045C120.363,782.019,76,776.548,76,769.8s44.363-12.256,99.089-12.256c23.56,0,45.195,1.014,62.2,2.707l1.859.184h.011C260.583,762.693,274.177,766.036,274.177,769.779Z" transform="translate(-73.488 -754.635)" fill="#18465e"/>
      <path id="Caminho_7" data-name="Caminho 7" d="M279.017,761.548c0,3.053-9.287,5.844-24.643,7.994-2.791.384-5.784.752-8.958,1.114q-4.115.44-8.622.841-4.37.373-9.07.7c-9.9.68-20.85,1.17-32.479,1.415q-4.231.084-8.58.134-4.527.05-9.157.056C121.446,773.8,76,768.322,76,761.542c0-5.822,33.821-10.7,79.109-11.922q3.874-.112,7.836-.178,7.133-.117,14.564-.122t14.564.122q3.969.073,7.834.178c15.391.412,29.461,1.253,41.322,2.407l1.9.184h.014C265.09,754.467,279.017,757.81,279.017,761.548Z" transform="translate(-76 -749.32)" fill="#cccede"/>
      <ellipse id="Elipse_1" data-name="Elipse 1" cx="41.27" cy="7.203" rx="41.27" ry="7.203" transform="translate(57.727 4.769)" fill="#63646b" opacity="0.1"/>
    </g>
    <circle id="Elipse_2" data-name="Elipse 2" cx="135.598" cy="135.598" r="135.598" transform="translate(369.322 410.812)" fill="#dadaed"/>
    <path id="Caminho_9" data-name="Caminho 9" d="M623.1,440.2A112.677,112.677,0,0,1,510.428,552.869c-3.571,0-7.109-.162-10.585-.49A112.691,112.691,0,0,1,397.827,443.995q-.067-1.9-.067-3.8,0-4.267.318-8.468A112.692,112.692,0,0,1,618.605,408.6c.24.841.479,1.671.708,2.535q1.253,4.735,2.117,9.632A113.658,113.658,0,0,1,623.1,440.2Z" transform="translate(-5.508 106.208)" opacity="0.1"/>
    <path id="Caminho_10" data-name="Caminho 10" d="M623.15,496.937a112.672,112.672,0,0,1-225.28,3.8c12.847.368,25.933-.056,38.072-4.24,13.159-4.529,24.423-13.2,36.54-20.056,32.551-18.356,71.4-23.3,108.584-19.666,12.63,1.231,25.727,3.794,37.582,8.507a112.749,112.749,0,0,1,4.5,31.627Z" transform="translate(-5.556 49.467)" fill="#585ec7" opacity="0.4"/>
    <path id="Caminho_11" data-name="Caminho 11" d="M654.4,505.793A112.677,112.677,0,0,1,541.723,618.466c-3.571,0-7.109-.161-10.585-.49a112.679,112.679,0,0,1-62.718-97.247c12.847.368,25.933-.056,38.072-4.239,13.164-4.529,24.423-13.2,36.54-20.056,32.256-18.195,70.69-23.2,107.57-19.76q1.253,4.735,2.117,9.632A113.651,113.651,0,0,1,654.4,505.793Z" transform="translate(-36.803 40.611)" fill="#585ec7" opacity="0.4"/>
    <path id="Caminho_12" data-name="Caminho 12" d="M623.1,514.275a112.673,112.673,0,0,1-225.347,0q0-4.267.318-8.468a89.455,89.455,0,0,1,25.727,7.159c13.214,5.933,24.969,15.042,38.713,19.616,10.028,3.343,20.691,4.139,31.242,4.457,13.175.418,26.629.084,39.092-4.212,13.159-4.529,24.418-13.2,36.54-20.028A160.064,160.064,0,0,1,621.42,494.81,113.647,113.647,0,0,1,623.1,514.275Z" transform="translate(-5.503 32.129)" fill="#585ec7"/>
    <path id="Caminho_13" data-name="Caminho 13" d="M1003.655,120.893l-10.167,6.446,6.173-11.226a10.027,10.027,0,0,0-6.128-2.195h-.167a12.021,12.021,0,0,1-2.106-.156l-3.448,2.184,1.476-2.685a12.29,12.29,0,0,1-6.028-4.574l-6.167,3.9,3.9-7.086c-3.61-4.329-8.468-6.98-13.822-6.98-6.412,0-12.122,3.811-15.81,9.755a11.822,11.822,0,0,1-10.451,5.638h-.345c-7.081,0-12.813,8.028-12.813,17.933s5.738,17.927,12.813,17.927a9.644,9.644,0,0,0,4.457-1.114,18.5,18.5,0,0,1,15.515-.306,16.2,16.2,0,0,0,13.192.033,18.5,18.5,0,0,1,15.381.3,9.6,9.6,0,0,0,4.418,1.114c7.081,0,12.813-8.028,12.813-17.927A22.763,22.763,0,0,0,1003.655,120.893Z" transform="translate(-240.241 207.646)" fill="#f2f2f2"/>
    <path id="Caminho_14" data-name="Caminho 14" d="M984.458,165.68a18.941,18.941,0,0,0-10.986,1.192,16.156,16.156,0,0,1-13.187,0,18.509,18.509,0,0,0-15.521.3,9.581,9.581,0,0,1-4.457,1.114c-6.318-.022-11.526-6.379-12.618-14.735a12.022,12.022,0,0,0,3.142-3.387c3.688-5.944,9.4-9.755,15.816-9.755s12.056,3.766,15.744,9.643a12.14,12.14,0,0,0,10.451,5.744H973C978,155.808,982.347,159.825,984.458,165.68Z" transform="translate(-240.214 189.093)" opacity="0.03"/>
    <path id="Caminho_15" data-name="Caminho 15" d="M238.962,116.775l-5.07,3.214,3.081-5.571a5.014,5.014,0,0,0-3.07-1.114h-.078a6.012,6.012,0,0,1-1.053-.078l-1.721,1.114.741-1.343a6.128,6.128,0,0,1-3.008-2.279l-3.075,1.95,1.944-3.538a9.019,9.019,0,0,0-6.891-3.482,9.444,9.444,0,0,0-7.889,4.869,5.9,5.9,0,0,1-5.214,2.785h-.173c-3.532,0-6.4,4-6.4,8.941s2.863,8.914,6.4,8.914a4.8,4.8,0,0,0,2.228-.557,9.226,9.226,0,0,1,7.738-.15,8.089,8.089,0,0,0,6.579,0,9.259,9.259,0,0,1,7.671.145,4.729,4.729,0,0,0,2.2.557c3.532,0,6.4-4,6.4-8.914a11.287,11.287,0,0,0-1.337-5.465Z" transform="translate(81.598 204.488)" fill="#f2f2f2"/>
    <path id="Caminho_16" data-name="Caminho 16" d="M229.4,139.127a9.4,9.4,0,0,0-5.476.6,8.089,8.089,0,0,1-6.579,0,9.237,9.237,0,0,0-7.744.15,4.763,4.763,0,0,1-2.228.557c-3.142,0-5.749-3.159-6.3-7.326a6.089,6.089,0,0,0,1.571-1.671,8.821,8.821,0,0,1,15.738-.056,6.045,6.045,0,0,0,5.214,2.863h.084C226.188,134.2,228.333,136.208,229.4,139.127Z" transform="translate(81.602 195.223)" opacity="0.03"/>
    <path id="Caminho_17" data-name="Caminho 17" d="M361.625,221.861l8.167,5.164-4.947-8.992a8.067,8.067,0,0,1,4.93-1.755h.128a9.024,9.024,0,0,0,1.671-.128l2.758,1.755-1.2-2.156a9.838,9.838,0,0,0,4.83-3.666l4.941,3.136-3.086-5.649A14.449,14.449,0,0,1,390.889,204c5.142,0,9.716,3.053,12.674,7.8a9.471,9.471,0,0,0,8.357,4.518h.279c5.671,0,10.267,6.429,10.267,14.362s-4.6,14.368-10.267,14.368a7.721,7.721,0,0,1-3.582-.9,14.83,14.83,0,0,0-12.429-.245,12.942,12.942,0,0,1-10.585.028,14.819,14.819,0,0,0-12.323.24,7.744,7.744,0,0,1-3.538.875c-5.677,0-10.273-6.434-10.273-14.368A18.245,18.245,0,0,1,361.625,221.861Z" transform="translate(11.452 160.929)" fill="#f2f2f2"/>
    <path id="Caminho_18" data-name="Caminho 18" d="M390.89,257.717a15.2,15.2,0,0,1,8.8.958,12.969,12.969,0,0,0,10.585,0,14.824,14.824,0,0,1,12.434.24,7.7,7.7,0,0,0,3.577.9c5.042,0,9.231-5.075,10.106-11.771a9.716,9.716,0,0,1-2.546-2.741c-2.958-4.758-7.532-7.8-12.674-7.8s-9.655,3.02-12.613,7.733a9.716,9.716,0,0,1-8.356,4.6h-.128C396.06,249.812,392.584,253.026,390.89,257.717Z" transform="translate(-2.465 146.092)" opacity="0.03"/>
    <path id="Caminho_41" data-name="Caminho 41" d="M534.817,618.153c12.674-2.34,12.73-20.813,12.73-20.813-.557,2.641-1.855,2.9-8.457,5.014S528.5,611.3,528.5,611.3c-19.727-22.49-36.685,2-36.685,2a23.4,23.4,0,0,0,11.8,9.142c-.78,1.905-1.6,4.563-.635,5.538,1.114,1.114,4.161-2.312,5.8-4.368.49.056.98.106,1.471.139.942,1.889,3.276,6.852,3.27,9.8,0,0,5.382-.412,4.7-10.223a40.59,40.59,0,0,0,9.9-2.947s-.557,15.3,3.9,16.106,8.824,6.228,8.824,6.228C547.474,629.8,534.817,618.153,534.817,618.153Z" transform="translate(-47.167 -13.282)" fill="#efc559" opacity="0.881"/>
    <path id="Caminho_42" data-name="Caminho 42" d="M680.268,562.644c12.635,2.529,19.537-14.607,19.537-14.607-1.476,2.228-2.786,2-9.71,1.5s-13.142,4.357-13.142,4.357c-9.978-28.178-34.813-11.7-34.813-11.7a23.4,23.4,0,0,0,7.577,12.869c-1.432,1.482-3.181,3.643-2.641,4.9.624,1.476,4.719-.6,7-1.905.435.24.875.462,1.315.674.173,2.106.5,7.582-.6,10.318,0,0,5.153,1.61,8.156-7.755a40.411,40.411,0,0,0,10.234.936s-6.206,14-2.34,16.412,5.883,9.053,5.883,9.053C687.677,578.142,680.268,562.644,680.268,562.644Z" transform="translate(-113.744 13.264)" fill="#efc559" opacity="0.881"/>
    <path id="Caminho_43" data-name="Caminho 43" d="M255.93,328.541l.033-.05-.128-.084-.262-.184.05.045a1.081,1.081,0,0,0-1.415.273l-.156.228h0l-7.577,10.914-1.326,1.905c-3.989-1.2-10.462,3.861-13.744,6.758l-.557.513c-.262-.585-.412-.958-.412-.958-.162,1.783-6.446,4.457-7.916,5.421a5.332,5.332,0,0,1-2.189.741c.212-6.774-5.014-13.9-5.014-13.9l-12.808-16.312a14.368,14.368,0,0,1,1.309-8.635c.1-.212.212-.423.329-.629h.63a17.878,17.878,0,0,0,3.114-.279A17.047,17.047,0,0,0,221.9,298.592a2.792,2.792,0,0,0,2.2-2.9,2.228,2.228,0,0,0,0-.791h0a2.876,2.876,0,0,0-.15-.485h0a14.762,14.762,0,0,0-1.71-2.518,7.8,7.8,0,0,1-1.214-4.145,16.518,16.518,0,0,1,.6-3.8,6.39,6.39,0,0,0,.362-2.3V281.5a3.8,3.8,0,0,0-.028-.613,2.817,2.817,0,0,0-.1-.429h0a4.106,4.106,0,0,0-1.716-2.089c-2.022-1.32-4.618-1.337-6.891-2.167-3.3-1.209-6.284-4.195-9.727-3.471-1.883.39-3.343,1.833-4.958,2.852a11.966,11.966,0,0,1-5.983,1.816,41.613,41.613,0,0,0-5.337,0,5.97,5.97,0,0,0-.925.251,13.8,13.8,0,0,0-4.635-.73,7.8,7.8,0,0,0-4.373,1.2c-2.368,1.671-3,4.869-2.964,7.744v.624c0,1.376.134,2.785.156,4.15a12.423,12.423,0,0,1-.518,3.788c-1.114,3.4-4.217,6.006-4.847,9.526a8.494,8.494,0,0,0-.106,1.838,19.308,19.308,0,0,0,1.187,5.928,43.376,43.376,0,0,1,2.195,12.384,20.356,20.356,0,0,1-1.51,7.5,11.353,11.353,0,0,1-1.07,1.983,5.713,5.713,0,0,1-.44.557l-.067.072c-.134.156-.279.3-.423.446l-.123.111a4.46,4.46,0,0,1-.44.345l-.145.111a4.42,4.42,0,0,1-.635.357l1.086-.061a4.791,4.791,0,0,1-1.086.691l5.749-.334a.461.461,0,0,0,.028.189,2.712,2.712,0,0,1-.084.423,3.345,3.345,0,0,1-.139.4.167.167,0,0,0,0,.056,3.432,3.432,0,0,1-.446.719l-.045.056a3.771,3.771,0,0,1-.29.306h0a2.752,2.752,0,0,1-.312.245l-.072.05a3.285,3.285,0,0,1-.357.206h0a3.572,3.572,0,0,1-.368.134l-.095.028a2.568,2.568,0,0,1-.4.084l.557-.067c.362-.045.724-.089,1.081-.15h.106a2.88,2.88,0,0,1-1.727.858,15.644,15.644,0,0,0,3.638-.713c.752,5.014,2.412,20.351,1.5,23.181-1.059,3.053,1.448,25.147,1.448,25.147s.34,1.671.936,4.223c-1.538,3.627-3.292,7.649-4.173,9.259-1.772,3.237-.9,19.738,5.192,27.075,0,0,2.524,3.554,1.861,4.852s.111,3.56.111,3.56l.964,21.354a55.667,55.667,0,0,1-.435,6.557c-2.6,3.22-6.607,7.916-8.5,8.685-2.914,1.181-24.674,27.61-24.674,27.61s.173.318.513.836l-.613.708-4.178,4.841-.329.384a100.6,100.6,0,0,0-10.139-1.4h-.407V505.5a15.739,15.739,0,0,0-4.368.117h-.033a1.443,1.443,0,0,0-.719.379c-1.409,1.727-2.173,28.908-2.173,28.908s1.5,13.576,6.184,14.362a2.608,2.608,0,0,0,.752.139h.05a1.365,1.365,0,0,0,.262,0,6.438,6.438,0,0,0,5.571-3.493,5.8,5.8,0,0,0,.468-1.253,9.945,9.945,0,0,1,.925-5.772c1.482-3.343,4.189-9.17,4.189-9.17s4.969-5.231,4.084-7.772l.479-.691c1.872-2.663,5.643-7.922,8.7-11.437l.6-.674a15.238,15.238,0,0,0,3.465,1.008s4.68-1.833,6.423-5.933c.741-1.744,3.643-4.83,6.735-7.8-.067.512-.1.8-.1.8l-.106,25.989a18.509,18.509,0,0,0,3.2,1.766c0,.206,0,.423,0,.641a83.2,83.2,0,0,1-.669,11.086c-.028.2-.061.384-.095.557-.384-.273-.719-.368-.93-.15-.958.969-1.554,7.17-1.61,10.028v.161h0c-.067,1.187-.384,2.591-.384,3.85-.028,1.827.557,3.343,3.493,3.487,3.666.156,19.432.4,27.855.518a18.685,18.685,0,0,0,12.462-4.418c1.549-1.326,2.735-2.785,2.786-4.189.078-1.064-.5-2.089-2.111-2.975a.14.14,0,0,1-.033.106c-.212-.117-.44-.228-.691-.34l-8.106-1.27L196.2,535s-.084-4.267-1.744-3.56a4.662,4.662,0,0,0-1.4.557c-.084-.156-.167-.323-.251-.5a16.05,16.05,0,0,1-1.7-7.2,4.824,4.824,0,0,1,.033-.691,12.085,12.085,0,0,0,1.142-1.175s-.106-9.7.98-11.543,4.457-20.384,4.457-20.384a8.832,8.832,0,0,1,2.284-5.5c2.173-2.05,1.415-7.983,1.415-7.983s3.047-1.616,4.028-6.9,4.134-16.824,4.134-16.824,6.529-17.042,6.095-27.827.652-16.4.652-16.4l1.359-25.069v-.39a9.829,9.829,0,0,1,.9.746V384.1l.312.273s.691-11.37.457-15.883c3.811-1.292,9.6-3.421,9.933-4.5.49-1.616,7.014-6.713,7.014-6.713a1.3,1.3,0,0,1-.4-.15c.206-.095.418-.206.646-.329,4.279-2.29,12.228-8.992,10.891-13.086L256.13,331.2a2.123,2.123,0,0,0-.2-2.657Zm-70.8-12.184a6.219,6.219,0,0,0-.635.05,48.52,48.52,0,0,0-1.593-6.59,43.865,43.865,0,0,1-2.256-10.323v-.462a13.029,13.029,0,0,1,.362-2.752c.212.384.44.763.68,1.114,1.387,2.1,3.014,4.095,3.872,6.462a18.427,18.427,0,0,0,1.209,3.259,3.064,3.064,0,0,0,2.852,1.671,2.228,2.228,0,0,0,1.075-.5A45.418,45.418,0,0,1,185.128,316.358Z" transform="translate(114.78 130.537)" fill="url(#linear-gradient)"/>
    <path id="Caminho_44" data-name="Caminho 44" d="M316,416.626a5.571,5.571,0,0,1-2.056.78c-2.68.078-4.886-7.175-4.886-7.175s.763-.769,1.978-1.85c3.588-3.2,11.142-9.092,14.652-5.794C329.639,406.286,320.609,414.13,316,416.626Z" transform="translate(33.778 73.405)" fill="#ecb4b6"/>
    <path id="Caminho_45" data-name="Caminho 45" d="M234.577,726.814,224.7,737.461s-9.142.1-7.354-4.941a18.5,18.5,0,0,0,.758-3.343,81.638,81.638,0,0,0,.646-10.8c0-2.368-.039-4.028-.039-4.028s14.4-6.306,12.925.262a12.289,12.289,0,0,0-.3,2.5,15.71,15.71,0,0,0,1.643,7.014A15.915,15.915,0,0,0,234.577,726.814Z" transform="translate(74.501 -63.899)" fill="#ecb4b6"/>
    <path id="Caminho_46" data-name="Caminho 46" d="M234.577,736.755,224.7,747.4s-9.142.1-7.354-4.941a18.5,18.5,0,0,0,.758-3.343,21.089,21.089,0,0,1,3.181,3.983s6.306,1.839,8.039-3.677a9.351,9.351,0,0,1,3.66-5.354A15.918,15.918,0,0,0,234.577,736.755Z" transform="translate(74.501 -73.839)" opacity="0.1"/>
    <path id="Caminho_47" data-name="Caminho 47" d="M255.959,752.728a18.022,18.022,0,0,1-12.039,4.3c-8.145-.122-23.4-.357-26.913-.507-4.724-.2-3.159-4.24-3-7.025v-.279c.05-2.785.63-8.824,1.554-9.772s4.173,4.2,4.173,4.2,6.306,1.844,8.039-3.677,5.265-6.033,5.265-6.033c1.6-.7,1.671,3.465,1.671,3.465l13.37,6.88,7.833,1.237c.251.117.485.234.7.345C260.115,747.82,258.55,750.483,255.959,752.728Z" transform="translate(76.043 -73.746)" fill="#f3c83c"/>
    <circle id="Elipse_3" data-name="Elipse 3" cx="0.579" cy="0.579" r="0.579" transform="translate(306.765 667.228)" fill="#fff" opacity="0.25"/>
    <circle id="Elipse_4" data-name="Elipse 4" cx="0.579" cy="0.579" r="0.579" transform="translate(312.175 669.907)" fill="#fff" opacity="0.25"/>
    <circle id="Elipse_5" data-name="Elipse 5" cx="0.579" cy="0.579" r="0.579" transform="translate(314.96 671.155)" fill="#fff" opacity="0.25"/>
    <circle id="Elipse_6" data-name="Elipse 6" cx="0.579" cy="0.579" r="0.579" transform="translate(320.743 673.372)" fill="#fff" opacity="0.25"/>
    <circle id="Elipse_7" data-name="Elipse 7" cx="0.579" cy="0.579" r="0.579" transform="translate(317.802 672.425)" fill="#fff" opacity="0.25"/>
    <path id="Caminho_48" data-name="Caminho 48" d="M255.959,762.269a18.022,18.022,0,0,1-12.039,4.3c-8.145-.123-23.4-.357-26.913-.507-4.724-.2-3.159-4.24-3-7.025l29.7,1.833s12.161-1.844,12.886-5.471C260.115,757.361,258.55,760.024,255.959,762.269Z" transform="translate(76.043 -83.287)" fill="#f3c83c"/>
    <path id="Caminho_49" data-name="Caminho 49" d="M255.96,762.053a17.966,17.966,0,0,1-12.039,4.3c-8.145-.117-23.4-.351-26.908-.5-4.73-.206-3.164-4.245-3.008-7.031l29.7,1.833s12.161-1.844,12.886-5.465C260.116,757.151,258.55,759.814,255.96,762.053Z" transform="translate(76.042 -83.193)" fill="#fff" opacity="0.25"/>
    <path id="Caminho_50" data-name="Caminho 50" d="M173.946,685.2a20.052,20.052,0,0,0-2.98,2.986c-2.947,3.426-6.59,8.551-8.4,11.142l-1.114,1.638-3.95-.607s-4.256-6.512-4.2-6.685,3.343-7.148,3.343-7.148l1.281-1.5,4.033-4.719,1.827-2.139S177.522,682.627,173.946,685.2Z" transform="translate(102.764 -49.081)" fill="#ecb4b6"/>
    <path id="Caminho_51" data-name="Caminho 51" d="M162.564,704.781l-1.114,1.638-3.95-.607s-4.256-6.513-4.2-6.685,3.343-7.148,3.343-7.148l1.281-1.5.418.072h1c-3.526,3.677.262,11.771.262,11.771A4.461,4.461,0,0,1,162.564,704.781Z" transform="translate(102.764 -54.533)" opacity="0.1"/>
    <path id="Caminho_52" data-name="Caminho 52" d="M148.217,712.219s-2.63,5.677-4.05,8.914a9.854,9.854,0,0,0-.891,5.621,5.176,5.176,0,0,1-.451,1.22,6.183,6.183,0,0,1-5.382,3.4,1.9,1.9,0,0,1-.251,0c-4.791-.128-6.312-14.033-6.312-14.033s.73-26.485,2.095-28.167a1.365,1.365,0,0,1,.7-.368,14.548,14.548,0,0,1,4.223-.111c4.334.312,9.9,1.376,9.9,1.376h1c-3.526,3.677.256,11.766.256,11.766s1.671.161,3,2.524S148.217,712.219,148.217,712.219Z" transform="translate(112.694 -53.698)" fill="#f3c83c"/>
    <circle id="Elipse_8" data-name="Elipse 8" cx="0.579" cy="0.579" r="0.579" transform="translate(254.56 650.041)" fill="#fff" opacity="0.25"/>
    <circle id="Elipse_9" data-name="Elipse 9" cx="0.579" cy="0.579" r="0.579" transform="translate(254.275 654.632)" fill="#fff" opacity="0.25"/>
    <path id="Caminho_53" data-name="Caminho 53" d="M142.14,727.782a6.2,6.2,0,0,1-5.382,3.409h-.251c-4.791-.117-6.318-14.044-6.318-14.044s.735-26.479,2.1-28.161a1.32,1.32,0,0,1,.7-.373,14.925,14.925,0,0,1,4.217-.112c-.078,4.758-.306,19.8.028,21.3S140.234,723.782,142.14,727.782Z" transform="translate(112.999 -53.613)" fill="#f3c83c"/>
    <path id="Caminho_54" data-name="Caminho 54" d="M142.76,727.963a6.189,6.189,0,0,1-5.382,3.4,1.909,1.909,0,0,1-.251,0c-4.8-.128-6.318-14.033-6.318-14.033s.735-26.484,2.1-28.167a1.32,1.32,0,0,1,.691-.368,14.559,14.559,0,0,1,4.223-.112c-.078,4.758-.306,19.8,0,21.3S140.849,723.958,142.76,727.963Z" transform="translate(112.725 -53.694)" fill="#fff" opacity="0.25"/>
    <path id="Caminho_55" data-name="Caminho 55" d="M136.508,731.359c-4.791-.117-6.318-14.044-6.318-14.044s.735-26.479,2.1-28.161a1.32,1.32,0,0,1,.7-.373c1,1.5,1.883,4.808,1.114,12.089-1.5,13.794.306,14.657.306,14.657S136.619,727.242,136.508,731.359Z" transform="translate(112.999 -53.781)" fill="#f3c83c"/>
    <path id="Caminho_56" data-name="Caminho 56" d="M136.438,731.359c-4.791-.117-6.318-14.044-6.318-14.044s.735-26.479,2.1-28.161a1.32,1.32,0,0,1,.7-.373c1,1.5,1.883,4.808,1.114,12.089-1.5,13.794.306,14.657.306,14.657S136.543,727.242,136.438,731.359Z" transform="translate(113.03 -53.781)" opacity="0.1"/>
    <path id="Caminho_57" data-name="Caminho 57" d="M316,422.005a5.571,5.571,0,0,1-2.056.78c-2.68.078-4.886-7.175-4.886-7.175s.763-.769,1.978-1.85C311.89,415.738,314.308,421.025,316,422.005Z" transform="translate(33.778 68.026)" opacity="0.1"/>
    <path id="Caminho_58" data-name="Caminho 58" d="M288.6,419.052a6.73,6.73,0,0,0,3.627-.791c1.4-.947,7.487-3.549,7.643-5.281,0,0,3.627,8.83,5.677,9.142,0,0-6.306,4.969-6.78,6.546S286,434.105,286,434.105Z" transform="translate(43.991 68.371)" fill="#ff748e"/>
    <path id="Caminho_59" data-name="Caminho 59" d="M288.6,419.052a6.73,6.73,0,0,0,3.627-.791c1.4-.947,7.487-3.549,7.643-5.281,0,0,3.627,8.83,5.677,9.142,0,0-6.306,4.969-6.78,6.546S286,434.105,286,434.105Z" transform="translate(43.991 68.371)" fill="#f3c83c"/>
    <path id="Caminho_60" data-name="Caminho 60" d="M180.846,685.232a20.051,20.051,0,0,0-2.981,2.986,21.45,21.45,0,0,1-8.986-7.838l1.827-2.139S184.423,682.658,180.846,685.232Z" transform="translate(95.863 -49.112)" opacity="0.1"/>
    <path id="Caminho_61" data-name="Caminho 61" d="M203.412,610.53s-7.71,10.3-10.529,11.454-23.833,26.9-23.833,26.9,4.518,8.3,12.813,9.666c0,0,4.518-1.788,6.2-5.777s14.941-15.242,14.941-15.242Z" transform="translate(95.788 -19.124)" fill="#5e5a6b"/>
    <path id="Caminho_62" data-name="Caminho 62" d="M203.412,610.53s-7.71,10.3-10.529,11.454-23.833,26.9-23.833,26.9,4.518,8.3,12.813,9.666c0,0,4.518-1.788,6.2-5.777s14.941-15.242,14.941-15.242Z" transform="translate(95.788 -19.124)" opacity="0.1"/>
    <path id="Caminho_63" data-name="Caminho 63" d="M188.81,672.407a33.286,33.286,0,0,0,7.014,0C200,672.017,196.849,674.535,188.81,672.407Z" transform="translate(87.036 -46.51)" opacity="0.1"/>
    <path id="Caminho_64" data-name="Caminho 64" d="M185.41,677.25s5.521,3.153,7.649,1.577S191,680.347,185.41,677.25Z" transform="translate(88.542 -48.674)" opacity="0.1"/>
    <path id="Caminho_65" data-name="Caminho 65" d="M232.9,714.626a12.291,12.291,0,0,0-.3,2.5c-4.262,3.866-9.387,2.669-12.59,1.265,0-2.368-.039-4.028-.039-4.028S234.375,708.063,232.9,714.626Z" transform="translate(73.231 -63.905)" opacity="0.1"/>
    <path id="Caminho_66" data-name="Caminho 66" d="M254.8,470.3l-.162,2.908-1.3,24.423s-1.053,5.465-.63,15.978-5.889,27.108-5.889,27.108-3.047,11.248-3.994,16.4-3.9,6.724-3.9,6.724.735,5.783-1.365,7.8a8.768,8.768,0,0,0-2.228,5.359s-3.259,18.072-4.306,19.861-.947,11.248-.947,11.248c-6.83,8.089-16.813.735-16.813.735l.106-25.326s2.836-23.331,4.936-26.59,2.1-12.189,2.1-12.189l-.93-20.808s-.747-2.228-.106-3.465-1.8-4.73-1.8-4.73c-5.883-7.148-6.724-23.225-5.014-26.379s6.813-15.76,6.813-15.76l7.031-4.1,12.7.379Z" transform="translate(76.866 43.343)" fill="#5e5a6b"/>
    <path id="Caminho_67" data-name="Caminho 67" d="M235.35,693.24s1.671,5.755,3,6.384S235.35,693.24,235.35,693.24Z" transform="translate(66.424 -55.756)" opacity="0.1"/>
    <path id="Caminho_68" data-name="Caminho 68" d="M239.46,658.86s4.306,3.4,6.128,3.393S239.46,658.86,239.46,658.86Z" transform="translate(64.603 -40.529)" opacity="0.1"/>
    <path id="Caminho_69" data-name="Caminho 69" d="M259.191,371.066v6.964l-4.579-1.972-4.563-1.967-9.933-9.771s-7.855-5.109-12.061-9.76c-2.4-2.652-3.61-5.159-1.493-6.479a13.243,13.243,0,0,0,2.747-2.412,44.855,44.855,0,0,0,5.482-8.084l.2-.356c2.045-3.749,3.4-6.958,3.4-6.958a42.243,42.243,0,0,1,9.471,4.457c.3.206.585.423.852.641,2.067,1.7,3.092,3.66,1.192,5.616a13.705,13.705,0,0,0-1.359,1.621h0a13.51,13.51,0,0,0-.841,1.331c-.117.2-.223.407-.323.613a14.1,14.1,0,0,0-1.259,8.412Z" transform="translate(70.8 105.004)" fill="#ecb4b6"/>
    <path id="Caminho_70" data-name="Caminho 70" d="M257.3,340.943a13.713,13.713,0,0,0-1.359,1.621h0a13.524,13.524,0,0,0-.841,1.331c-.117.2-.223.407-.323.613a16.5,16.5,0,0,1-12.384-6.685c-.067-.095-.134-.184-.195-.279l.195-.357c2.045-3.749,3.4-6.958,3.4-6.958a42.243,42.243,0,0,1,9.471,4.457c.3.206.585.423.852.641C258.178,337.027,259.2,339.015,257.3,340.943Z" transform="translate(63.39 105.022)" opacity="0.1"/>
    <path id="Caminho_71" data-name="Caminho 71" d="M269.816,311.911a16.54,16.54,0,0,1-16.551,16.551h-.63a16.557,16.557,0,1,1,17.159-16.54Z" transform="translate(65.835 120.466)" fill="#ecb4b6"/>
    <path id="Caminho_72" data-name="Caminho 72" d="M265.517,386.32s8.356,4.707,6.2.735L260.871,371h0l12.345,15.872s7.883,10.824,3.577,18.284c0,0-.63,6.2.106,7.671s-.212,17.131-.212,17.131-2.941-2.735-4.518-2.228S259.45,429.2,259.45,429.2Z" transform="translate(55.75 86.964)" opacity="0.1"/>
    <path id="Caminho_73" data-name="Caminho 73" d="M276.156,470.572l-.162,2.908c-1-.724-2.384-1.538-3.309-1.226-1.543.524-12.685,1.471-12.685,1.471l.513-3.616Z" transform="translate(55.506 43.069)" opacity="0.1"/>
    <path id="Caminho_74" data-name="Caminho 74" d="M266.078,386.32s8.357,4.707,6.2.735L261.4,371h0l12.345,15.872s7.883,10.824,3.571,18.284c0,0-.63,6.2.106,7.671s-.212,17.131-.212,17.131-2.941-2.735-4.518-2.228S260,429.2,260,429.2Z" transform="translate(55.506 86.964)" fill="#464353"/>
    <path id="Caminho_75" data-name="Caminho 75" d="M250.337,388.822a57.7,57.7,0,0,1-2.568,11.058s-1.465,14.925-3.343,19.342-1.053,10.507-2.1,21.727c-.379,4.05-1.671,6.83-3.443,8.707-2.9,3.086-7.025,3.733-10.29,3.543l-.774-.061c-5.253-.524-10.3-25.849-10.3-25.849s-2.418-21.543-1.471-24.485-.947-19.76-1.577-23.437c-.4-2.329.8-6.128,1.738-8.618.557-1.426.992-2.418.992-2.418s1.788-5.671,4.73-8.613a4.329,4.329,0,0,1,3.12-1.309,7.733,7.733,0,0,1,3.9,1.22l.134.089S248.215,379.262,250,383.78A11.965,11.965,0,0,1,250.337,388.822Z" transform="translate(75.704 92.541)" opacity="0.1"/>
    <path id="Caminho_76" data-name="Caminho 76" d="M249.207,388.228a57.683,57.683,0,0,1-2.568,11.064s-1.471,14.925-3.343,19.337-1.053,10.507-2.106,21.727c-.373,4.045-1.671,6.824-3.443,8.707-2.891,3.086-7.019,3.727-10.284,3.538a7.032,7.032,0,0,1-.774-.061c-5.253-.524-10.3-25.849-10.3-25.849s-2.418-21.543-1.471-24.485-.947-19.755-1.577-23.437c-.4-2.329.8-6.128,1.738-8.613.557-1.432.992-2.418.992-2.418s1.788-5.677,4.73-8.618a4.328,4.328,0,0,1,3.114-1.309,7.8,7.8,0,0,1,3.9,1.22l.139.089s19.125,19.549,20.908,24.067A12.279,12.279,0,0,1,249.207,388.228Z" transform="translate(76.204 92.806)" fill="#f3c83c"/>
    <path id="Caminho_77" data-name="Caminho 77" d="M234.512,550.49s-4.334,3.866-5.833,3.7S234.512,550.49,234.512,550.49Z" transform="translate(69.468 7.468)" opacity="0.1"/>
    <path id="Caminho_78" data-name="Caminho 78" d="M236.493,557.1a59.314,59.314,0,0,1-5.933,2.44C229.195,559.859,234.732,556.555,236.493,557.1Z" transform="translate(68.64 4.567)" opacity="0.1"/>
    <path id="Caminho_79" data-name="Caminho 79" d="M273.13,452.924s6.774.078,7.8,2.228S275.336,452.066,273.13,452.924Z" transform="translate(49.691 50.723)" opacity="0.1"/>
    <path id="Caminho_80" data-name="Caminho 80" d="M271.43,459.67s5.2,1.114,6.774,2.362S271.43,459.67,271.43,459.67Z" transform="translate(50.444 47.692)" opacity="0.1"/>
    <path id="Caminho_81" data-name="Caminho 81" d="M252.907,436.61s-.63,21.387-2.958,24.117S252.907,436.61,252.907,436.61Z" transform="translate(60.22 57.906)" opacity="0.1"/>
    <path id="Caminho_82" data-name="Caminho 82" d="M244.4,543.871s-4.329,18.836,4.373,20.017,6.028-21.437,6.028-21.437Z" transform="translate(62.891 11.029)" opacity="0.1"/>
    <path id="Caminho_83" data-name="Caminho 83" d="M243.835,543.281s-4.329,18.835,4.379,20.022,6.022-21.443,6.022-21.443Z" transform="translate(63.142 11.29)" fill="#ecb4b6"/>
    <path id="Caminho_84" data-name="Caminho 84" d="M240.846,394.635c-.446-11.32-16.29-13.66-19.983-2.953l-.078.217c-2.412,7.242-1.365,25.627-1.365,25.627s.318,12.329,1.471,16.423,4.412,15.872,4.412,17.76,3.019,9.142,4.3,9.671,1.916,4.624,2.228,5.359,1.253,10.3,1.253,10.3,11.877-.735,12.089-2.624-2.63-11.142-2.63-11.142a21.369,21.369,0,0,1-2.362-6.83c-.267-3.047-1.944-4.412-1.632-6.512s-.947-3.153-.947-4.524a33.553,33.553,0,0,0-.941-5.042s-2-1.577-1.671-3.465-2.836-5.677-1.994-7.042,1.047-4.73,1.047-4.73,1.042-15.153,1.76-19.248,5.014-10.719,5.014-10.719A2.2,2.2,0,0,0,240.846,394.635Z" transform="translate(73.579 80.861)" opacity="0.1"/>
    <path id="Caminho_85" data-name="Caminho 85" d="M239.353,460.787c-2.891,3.086-7.019,3.727-10.284,3.538-.373-1.432-.925-3.192-1.733-3.526-1.276-.524-4.3-7.8-4.3-9.666s-3.259-13.666-4.412-17.76-1.471-16.406-1.471-16.406-1.053-18.384,1.365-25.627c.028-.072.05-.145.072-.223,3.7-10.707,19.537-8.357,19.989,2.958v.518s-4.312,6.618-5.014,10.719-1.788,19.231-1.788,19.231-.212,3.343-1.053,4.73,2.312,5.153,2,7.042,1.671,3.471,1.671,3.471a33.377,33.377,0,0,1,.947,5.042c0,1.37,1.259,2.418.947,4.518s1.365,3.465,1.632,6.518A17.093,17.093,0,0,0,239.353,460.787Z" transform="translate(74.582 81.11)" opacity="0.1"/>
    <path id="Caminho_86" data-name="Caminho 86" d="M239.715,394.073c-.451-11.32-16.29-13.666-19.989-2.953a.666.666,0,0,1-.072.217c-2.418,7.242-1.365,25.627-1.365,25.627s.318,12.323,1.471,16.423,4.4,15.849,4.4,17.744,3.019,9.142,4.3,9.666,1.916,4.624,2.228,5.359,1.276,10.3,1.276,10.3,11.877-.735,12.083-2.63-2.624-11.142-2.624-11.142a21.369,21.369,0,0,1-2.362-6.83c-.267-3.047-1.95-4.418-1.632-6.518s-.947-3.153-.947-4.518a33.812,33.812,0,0,0-.941-5.047s-2-1.577-1.671-3.465-2.841-5.677-2-7.042,1.053-4.73,1.053-4.73S233.965,409.4,234.7,405.3s5.014-10.719,5.014-10.719A1.721,1.721,0,0,0,239.715,394.073Z" transform="translate(74.081 81.111)" fill="#f3c83c"/>
    <path id="Caminho_87" data-name="Caminho 87" d="M221.91,450.112c.318-.318,6.306-6.936,8.2-4.568S221.91,450.112,221.91,450.112Z" transform="translate(72.376 54.175)" opacity="0.1"/>
    <path id="Caminho_88" data-name="Caminho 88" d="M222.9,459.723c.24-.24,5.989-.474,7.409-3.7S222.9,459.723,222.9,459.723Z" transform="translate(71.938 49.69)" opacity="0.1"/>
    <g id="Grupo_2" data-name="Grupo 2" transform="translate(287.086 422.589)" opacity="0.1">
      <path id="Caminho_89" data-name="Caminho 89" d="M210.18,356.985a1.621,1.621,0,0,1,.318.557,2.468,2.468,0,0,0-.318-2.15c-.279-.318-.691-.513-.942-.852,0-.028-.033-.061-.056-.089a1.671,1.671,0,0,0,.056,1.671C209.49,356.489,209.9,356.678,210.18,356.985Z" transform="translate(-208.986 -328.294)"/>
      <path id="Caminho_90" data-name="Caminho 90" d="M225.042,315.778c0-.6.028-1.192,0-1.783-.106-2.145-.507-4.345-.6-6.5-.128,2.635.462,5.4.6,8.072Z" transform="translate(-215.825 -307.5)"/>
    </g>
    <path id="Caminho_91" data-name="Caminho 91" d="M325.449,401.918l.323.223a1.3,1.3,0,0,1-.334-1.8l14.607-21.2a1.3,1.3,0,0,1,1.811-.334l-.329-.223a2.089,2.089,0,0,1,.557,2.9l-13.716,19.905a2.078,2.078,0,0,1-2.919.535Z" transform="translate(26.625 83.612)" fill="#464353"/>
    <path id="Caminho_92" data-name="Caminho 92" d="M.953,0h.412V28.345h-.4A.969.969,0,0,1,0,27.376V.969A.969.969,0,0,1,.953,0Z" transform="translate(367.437 461.683) rotate(34.56)" fill="#9f9eff"/>
    <rect id="Retângulo_27" data-name="Retângulo 27" width="0.261" height="2.309" rx="0.131" transform="matrix(0.821, 0.571, -0.571, 0.821, 365.097, 465.159)" fill="#464353"/>
    <path id="Caminho_93" data-name="Caminho 93" d="M256.5,304.172c-.234-1.114-1.159-1.967-1.794-2.925-1.593-2.4-1.343-5.571-.6-8.357a5.962,5.962,0,0,0,.334-2.368,3.732,3.732,0,0,0-1.755-2.457c-1.95-1.287-4.457-1.3-6.652-2.111-3.187-1.181-6.072-4.089-9.4-3.382-1.816.384-3.214,1.788-4.785,2.785a11.5,11.5,0,0,1-5.777,1.772,37.957,37.957,0,0,0-5.159,0,4.6,4.6,0,0,0-.891.245,13.17,13.17,0,0,0-4.457-.719,7.56,7.56,0,0,0-4.223,1.175c-2.29,1.616-2.9,4.741-2.863,7.543s.507,5.682-.351,8.357c-1.064,3.343-4.072,5.85-4.674,9.281-.418,2.329.357,4.685,1.042,6.953,1.972,6.512,3.276,13.71.657,19.994a7.131,7.131,0,0,1-3.226,3.9l5.571-.323a3.025,3.025,0,0,1-2.535,3.437,12.9,12.9,0,0,0,4.078-.93,4.362,4.362,0,0,0,2.568-3.114,16.95,16.95,0,0,1,.156-2.262c.362-1.248,1.671-1.939,2.68-2.735,2.713-2.111,3.994-5.671,4.1-9.109a32.518,32.518,0,0,0-1.783-10.117,42.816,42.816,0,0,1-2.178-10.028,13.058,13.058,0,0,1,.345-3.744c.2.373.423.741.652,1.086,1.343,2.05,2.914,3.994,3.738,6.3a17.683,17.683,0,0,0,1.17,3.17,2.9,2.9,0,0,0,2.758,1.61,3.453,3.453,0,0,0,2.323-2.524A11.851,11.851,0,0,1,226.8,311.2c1.326-1.85,3.972-2.017,6.245-1.95,4.791.15,11.4.88,15.148-2.786.713-.7,1.053-1.766,2.167-1.5,1,.234,1.554,1.855,2.618,2.228C254.687,307.726,256.9,306.1,256.5,304.172Z" transform="translate(81.226 126.177)" opacity="0.1"/>
    <path id="Caminho_94" data-name="Caminho 94" d="M256.5,303.072c-.234-1.114-1.159-1.967-1.794-2.925-1.593-2.4-1.343-5.571-.6-8.356a5.962,5.962,0,0,0,.334-2.368,3.733,3.733,0,0,0-1.755-2.457c-1.95-1.287-4.457-1.3-6.652-2.111-3.187-1.181-6.072-4.089-9.4-3.382-1.816.384-3.214,1.788-4.785,2.785a11.5,11.5,0,0,1-5.777,1.772,37.957,37.957,0,0,0-5.159,0,4.6,4.6,0,0,0-.891.245,13.17,13.17,0,0,0-4.457-.719,7.56,7.56,0,0,0-4.223,1.175c-2.29,1.616-2.9,4.741-2.863,7.543s.507,5.682-.351,8.356c-1.064,3.315-4.072,5.85-4.674,9.281-.418,2.329.357,4.685,1.042,6.953,1.972,6.512,3.276,13.71.657,19.994a7.131,7.131,0,0,1-3.226,3.9l5.571-.329a3.025,3.025,0,0,1-2.535,3.437,12.9,12.9,0,0,0,4.078-.93,4.362,4.362,0,0,0,2.568-3.114,16.952,16.952,0,0,1,.156-2.262c.362-1.248,1.671-1.939,2.68-2.735,2.713-2.111,3.994-5.671,4.1-9.109a32.518,32.518,0,0,0-1.783-10.117,42.737,42.737,0,0,1-2.178-10.056,13.058,13.058,0,0,1,.345-3.744c.2.373.423.741.652,1.114,1.343,2.05,2.914,3.994,3.738,6.3a17.682,17.682,0,0,0,1.17,3.17A2.9,2.9,0,0,0,223.25,316a3.453,3.453,0,0,0,2.323-2.524,11.851,11.851,0,0,1,1.226-3.382c1.326-1.85,3.972-2.017,6.245-1.95,4.791.15,11.4.88,15.148-2.785.713-.7,1.053-1.766,2.167-1.5,1,.234,1.554,1.855,2.618,2.228C254.687,306.626,256.9,305,256.5,303.072Z" transform="translate(81.226 126.665)" fill="#464353"/>
    <g id="Grupo_3" data-name="Grupo 3" transform="translate(283.15 415.669)" opacity="0.1">
      <path id="Caminho_95" data-name="Caminho 95" d="M213.68,302.62c0,.362-.028.73,0,1.086,0,1.17.1,2.351.139,3.526C213.853,305.712,213.73,304.158,213.68,302.62Z" transform="translate(-207.123 -298.419)"/>
      <path id="Caminho_96" data-name="Caminho 96" d="M207.683,354.7a41.075,41.075,0,0,0-2.106-12.986,24.817,24.817,0,0,1-1.114-4.624,16.375,16.375,0,0,0,1.114,6.462,44.729,44.729,0,0,1,2.106,11.148Z" transform="translate(-203.026 -313.686)"/>
      <path id="Caminho_97" data-name="Caminho 97" d="M294.591,300.918a16.538,16.538,0,0,1,.557-3.053,5.961,5.961,0,0,0,.334-2.368,2.532,2.532,0,0,0-.1-.418c-.067.318-.15.635-.234.953A14.4,14.4,0,0,0,294.591,300.918Z" transform="translate(-242.953 -295.08)"/>
      <path id="Caminho_98" data-name="Caminho 98" d="M207.458,387.69l-3.343.195a5.571,5.571,0,0,1-2.195,1.972l5.237-.312A2.786,2.786,0,0,0,207.458,387.69Z" transform="translate(-201.92 -336.097)"/>
      <path id="Caminho_99" data-name="Caminho 99" d="M266.37,318.943a2.9,2.9,0,0,1-3.415,1.593c-1.064-.362-1.621-1.983-2.618-2.228-1.114-.262-1.454.808-2.167,1.5-3.749,3.682-10.356,2.953-15.148,2.786-2.273-.067-4.919.1-6.245,1.95a11.959,11.959,0,0,0-1.226,3.382,3.321,3.321,0,0,1-2.323,2.524,2.821,2.821,0,0,1-2.758-1.61,17.685,17.685,0,0,1-1.17-3.17c-.824-2.306-2.4-4.251-3.738-6.3-.228-.345-.451-.713-.652-1.086a13.058,13.058,0,0,0-.345,3.744q0,.134,0,.267a11.749,11.749,0,0,1,.323-2.173c.2.373.423.741.652,1.114,1.343,2.05,2.914,3.994,3.738,6.3a17.683,17.683,0,0,0,1.17,3.17,2.9,2.9,0,0,0,2.758,1.61,3.453,3.453,0,0,0,2.323-2.524,11.852,11.852,0,0,1,1.226-3.382c1.326-1.85,3.972-2.017,6.245-1.95,4.791.15,11.4.88,15.148-2.786.713-.7,1.053-1.766,2.167-1.5,1,.234,1.554,1.855,2.618,2.228,1.749.6,3.961-1.031,3.56-2.958A2.6,2.6,0,0,0,266.37,318.943Z" transform="translate(-211.942 -305.35)"/>
      <path id="Caminho_100" data-name="Caminho 100" d="M216.792,370.65c-1.025.8-2.318,1.487-2.68,2.735a16.951,16.951,0,0,0-.156,2.262,4.362,4.362,0,0,1-2.568,3.114,8.069,8.069,0,0,1-1.6.557,3.031,3.031,0,0,1-2.479,2.228,12.9,12.9,0,0,0,4.078-.93,4.362,4.362,0,0,0,2.568-3.114,16.953,16.953,0,0,1,.156-2.262c.362-1.248,1.671-1.939,2.68-2.735,2.713-2.111,3.994-5.671,4.1-9.109V361.87C220.7,365.19,219.427,368.628,216.792,370.65Z" transform="translate(-204.307 -324.661)"/>
    </g>
  </g>
</svg>
